<?xml version="1.0" encoding="iso-8859-1"?>
<!-- Uploaded to: SVG Repo, www.svgrepo.com, Generator: SVG Repo Mixer Tools -->
<!DOCTYPE svg PUBLIC "-//W3C//DTD SVG 1.1//EN" "http://www.w3.org/Graphics/SVG/1.1/DTD/svg11.dtd">
<svg fill="#000000" version="1.1" id="Capa_1" xmlns="http://www.w3.org/2000/svg" xmlns:xlink="http://www.w3.org/1999/xlink" 
	 viewBox="0 0 58 58" xml:space="preserve">
<g>
	<rect x="40" y="27" width="12" height="2"/>
	<rect x="40" y="31" width="12" height="2"/>
	<rect x="40" y="35" width="12" height="2"/>
	<rect x="40" y="39" width="12" height="2"/>
	<rect x="40" y="43" width="12" height="2"/>
	<path d="M54,0h-5v12h-2V0h-2v12h-2V0h-2v12h-2V0h-2v12h-2V0h-2v12h-2V0h-2v12h-2V0h-2v12h-2V0h-2v12h-2V0h-5v14h2v7h6v22.336
		c-0.496-0.66-1.174-1.249-2-1.741V23h-4v17.199C15.234,40.073,14.432,40,13.597,40l-0.215,0.001
		c-5.069,0.07-9.048,2.533-9.354,5.688L4,45.7v6.429C4.042,55.421,8.137,58,13.323,58l0.215-0.001
		c1.906-0.026,3.658-0.391,5.129-0.999H49c1.598,0,3-1.316,3-2.817V51H34V21h18v-7h2V0z M15.552,49.808
		c-0.202,0.035-0.407,0.067-0.615,0.093c-0.084,0.01-0.17,0.016-0.255,0.025c-0.148,0.015-0.295,0.032-0.444,0.042
		c-0.24,0.016-0.482,0.027-0.728,0.03L13.325,50c-0.019,0-0.038-0.002-0.057-0.002c-0.223-0.001-0.445-0.007-0.663-0.019
		c-0.085-0.005-0.167-0.014-0.251-0.021c-0.152-0.011-0.304-0.022-0.453-0.038c-0.09-0.01-0.177-0.024-0.265-0.036
		c-0.141-0.019-0.282-0.036-0.42-0.059c-0.087-0.015-0.172-0.033-0.258-0.05c-0.089-0.017-0.178-0.034-0.265-0.053l7.017-7.017
		c0.233,0.087,0.454,0.18,0.665,0.279c0.055,0.026,0.11,0.052,0.164,0.079c0.207,0.103,0.404,0.21,0.587,0.324
		c0.017,0.01,0.035,0.02,0.052,0.03c0.198,0.125,0.377,0.258,0.545,0.395c0.036,0.03,0.07,0.06,0.105,0.091
		c0.138,0.12,0.264,0.242,0.377,0.369c0.021,0.024,0.046,0.047,0.066,0.071c0.127,0.149,0.236,0.302,0.327,0.459
		c0.016,0.027,0.027,0.055,0.042,0.083c0.069,0.129,0.124,0.26,0.168,0.392c0.014,0.043,0.029,0.086,0.04,0.13
		c0.04,0.153,0.066,0.307,0.07,0.463l-0.027,0.26c-0.178,1.689-2.394,3.151-5.282,3.669C15.589,49.803,15.571,49.805,15.552,49.808z
		 M13.409,42.001L13.597,42c0.637,0,1.256,0.051,1.851,0.138l-6.884,6.884c-0.029-0.013-0.058-0.026-0.086-0.04
		c-0.067-0.032-0.136-0.064-0.202-0.098c-0.116-0.06-0.226-0.123-0.335-0.187c-0.042-0.025-0.085-0.048-0.126-0.073
		c-0.127-0.079-0.248-0.16-0.363-0.244c-0.016-0.012-0.033-0.023-0.049-0.034c-0.8-0.594-1.303-1.307-1.378-2.075l-0.01-0.363
		C6.19,43.823,9.488,42.055,13.409,42.001z M13.511,55.999L13.323,56C9.381,56,6.026,54.215,6,52.107v-2.332
		c0.012,0.01,0.027,0.019,0.04,0.029c0.177,0.14,0.365,0.274,0.561,0.404c0.032,0.021,0.062,0.045,0.095,0.066
		c0.229,0.146,0.47,0.285,0.723,0.415c0.058,0.03,0.121,0.055,0.18,0.084c0.193,0.095,0.39,0.187,0.595,0.271
		c0.105,0.043,0.214,0.082,0.322,0.122c0.17,0.064,0.341,0.127,0.518,0.184c0.121,0.039,0.244,0.075,0.368,0.111
		c0.176,0.051,0.354,0.098,0.535,0.142c0.127,0.031,0.255,0.06,0.385,0.087c0.191,0.04,0.386,0.075,0.583,0.108
		c0.126,0.021,0.252,0.043,0.38,0.061c0.22,0.03,0.445,0.053,0.671,0.073c0.111,0.01,0.219,0.024,0.331,0.031
		C12.627,51.986,12.972,52,13.323,52h0.002h0l0.213-0.001c0.365-0.005,0.722-0.025,1.074-0.054c0.09-0.008,0.178-0.02,0.267-0.029
		c0.268-0.027,0.533-0.059,0.793-0.099c0.083-0.013,0.163-0.028,0.245-0.043c0.275-0.048,0.545-0.102,0.809-0.164
		c0.052-0.012,0.104-0.025,0.156-0.038c0.312-0.078,0.616-0.164,0.911-0.261c0.001,0,0.002-0.001,0.003-0.001
		c1.277-0.42,2.375-1.014,3.225-1.737c0,0.051,0,0.1,0,0.149c0.002,0.752,0.001,1.381-0.003,1.751L21,51.926
		c0,0.141-0.019,0.282-0.05,0.422c-0.008,0.036-0.023,0.071-0.033,0.107c-0.029,0.104-0.062,0.208-0.108,0.311
		c-0.019,0.044-0.044,0.087-0.066,0.13c-0.047,0.092-0.098,0.183-0.157,0.274c-0.033,0.05-0.07,0.1-0.107,0.15
		c-0.058,0.079-0.122,0.157-0.19,0.234c-0.051,0.058-0.103,0.115-0.159,0.171c-0.061,0.062-0.129,0.123-0.196,0.184
		c-0.074,0.066-0.147,0.133-0.228,0.197c-0.046,0.037-0.097,0.072-0.145,0.108C18.175,55.246,15.936,55.966,13.511,55.999z"/>
</g>
</svg>